<?xml version="1.0" standalone="no"?>
<!DOCTYPE svg PUBLIC "-//W3C//DTD SVG 20010904//EN"
 "http://www.w3.org/TR/2001/REC-SVG-20010904/DTD/svg10.dtd">
<svg version="1.0" xmlns="http://www.w3.org/2000/svg"
 width="512.000000pt" height="512.000000pt" viewBox="0 0 512.000000 512.000000"
 preserveAspectRatio="xMidYMid meet">

<g transform="translate(0.000000,512.000000) scale(0.100000,-0.100000)"
fill="#000000" stroke="none">
<path d="M2435 5104 c-451 -44 -811 -194 -1133 -474 -291 -253 -525 -655 -601
-1035 -58 -290 -52 -545 18 -821 106 -415 398 -966 814 -1537 273 -375 635
-808 915 -1097 l122 -125 122 125 c366 377 829 951 1121 1392 305 460 521 902
608 1242 87 340 74 690 -37 1026 -225 677 -807 1171 -1514 1285 -94 15 -358
27 -435 19z m375 -654 c259 -53 477 -168 658 -349 247 -248 374 -552 375 -901
1 -214 -36 -375 -128 -565 -215 -446 -695 -733 -1190 -712 -543 23 -1004 373
-1169 887 -47 145 -60 233 -60 390 1 270 79 514 234 732 70 98 212 241 311
311 139 99 334 180 507 211 120 22 345 20 462 -4z"/>
</g>
</svg>
