<svg width="22" height="16" viewBox="0 0 22 16" fill="none" xmlns="http://www.w3.org/2000/svg">
<mask id="path-1-outside-1_1078_222" maskUnits="userSpaceOnUse" x="0.28125" y="-0.5" width="21" height="17" fill="black">
<rect fill="white" x="0.28125" y="-0.5" width="21" height="17"/>
<path fill-rule="evenodd" clip-rule="evenodd" d="M10.7445 11.9955C10.6707 11.9649 10.6036 11.92 10.5472 11.8634L6.90241 8.21866C6.78835 8.10459 6.72427 7.94989 6.72427 7.78857C6.72427 7.62726 6.78835 7.47255 6.90241 7.35849C7.01648 7.24442 7.17118 7.18034 7.3325 7.18034C7.49381 7.18034 7.64852 7.24442 7.76258 7.35849L10.3698 9.96694V1.10746C10.3698 0.946355 10.4338 0.791844 10.5477 0.677922C10.6617 0.564 10.8162 0.5 10.9773 0.5C11.1384 0.5 11.2929 0.564 11.4068 0.677922C11.5207 0.791844 11.5847 0.946355 11.5847 1.10746V9.96694L14.192 7.35849C14.306 7.24442 14.4608 7.18034 14.6221 7.18034C14.7834 7.18034 14.9381 7.24442 15.0522 7.35849C15.1662 7.47255 15.2303 7.62726 15.2303 7.78857C15.2303 7.94989 15.1662 8.10459 15.0522 8.21866L11.4074 11.8634C11.3509 11.92 11.2839 11.9649 11.2101 11.9955C11.1363 12.0261 11.0572 12.0419 10.9773 12.0419C10.8974 12.0419 10.8183 12.0261 10.7445 11.9955ZM2.31826 9.6674C2.20433 9.55348 2.04982 9.48947 1.88871 9.48947C1.7276 9.48947 1.57309 9.55348 1.45917 9.6674C1.34525 9.78132 1.28125 9.93583 1.28125 10.0969V13.1343C1.28125 13.7787 1.53725 14.3967 1.99294 14.8524C2.44862 15.3081 3.06667 15.5641 3.71111 15.5641H18.2902C18.9347 15.5641 19.5527 15.3081 20.0084 14.8524C20.4641 14.3967 20.7201 13.7787 20.7201 13.1343V10.0969C20.7201 9.93583 20.6561 9.78132 20.5422 9.6674C20.4283 9.55348 20.2737 9.48947 20.1126 9.48947C19.9515 9.48947 19.797 9.55348 19.6831 9.6674C19.5692 9.78132 19.5052 9.93583 19.5052 10.0969V13.1343C19.5052 13.4565 19.3772 13.7655 19.1493 13.9933C18.9215 14.2212 18.6125 14.3492 18.2902 14.3492H3.71111C3.38889 14.3492 3.07987 14.2212 2.85202 13.9933C2.62418 13.7655 2.49618 13.4565 2.49618 13.1343V10.0969C2.49618 9.93583 2.43218 9.78132 2.31826 9.6674Z"/>
</mask>
<g filter="url(#filter0_i_1078_222)">
<path fill-rule="evenodd" clip-rule="evenodd" d="M10.7445 11.9955C10.6707 11.9649 10.6036 11.92 10.5472 11.8634L6.90241 8.21866C6.78835 8.10459 6.72427 7.94989 6.72427 7.78857C6.72427 7.62726 6.78835 7.47255 6.90241 7.35849C7.01648 7.24442 7.17118 7.18034 7.3325 7.18034C7.49381 7.18034 7.64852 7.24442 7.76258 7.35849L10.3698 9.96694V1.10746C10.3698 0.946355 10.4338 0.791844 10.5477 0.677922C10.6617 0.564 10.8162 0.5 10.9773 0.5C11.1384 0.5 11.2929 0.564 11.4068 0.677922C11.5207 0.791844 11.5847 0.946355 11.5847 1.10746V9.96694L14.192 7.35849C14.306 7.24442 14.4608 7.18034 14.6221 7.18034C14.7834 7.18034 14.9381 7.24442 15.0522 7.35849C15.1662 7.47255 15.2303 7.62726 15.2303 7.78857C15.2303 7.94989 15.1662 8.10459 15.0522 8.21866L11.4074 11.8634C11.3509 11.92 11.2839 11.9649 11.2101 11.9955C11.1363 12.0261 11.0572 12.0419 10.9773 12.0419C10.8974 12.0419 10.8183 12.0261 10.7445 11.9955ZM2.31826 9.6674C2.20433 9.55348 2.04982 9.48947 1.88871 9.48947C1.7276 9.48947 1.57309 9.55348 1.45917 9.6674C1.34525 9.78132 1.28125 9.93583 1.28125 10.0969V13.1343C1.28125 13.7787 1.53725 14.3967 1.99294 14.8524C2.44862 15.3081 3.06667 15.5641 3.71111 15.5641H18.2902C18.9347 15.5641 19.5527 15.3081 20.0084 14.8524C20.4641 14.3967 20.7201 13.7787 20.7201 13.1343V10.0969C20.7201 9.93583 20.6561 9.78132 20.5422 9.6674C20.4283 9.55348 20.2737 9.48947 20.1126 9.48947C19.9515 9.48947 19.797 9.55348 19.6831 9.6674C19.5692 9.78132 19.5052 9.93583 19.5052 10.0969V13.1343C19.5052 13.4565 19.3772 13.7655 19.1493 13.9933C18.9215 14.2212 18.6125 14.3492 18.2902 14.3492H3.71111C3.38889 14.3492 3.07987 14.2212 2.85202 13.9933C2.62418 13.7655 2.49618 13.4565 2.49618 13.1343V10.0969C2.49618 9.93583 2.43218 9.78132 2.31826 9.6674Z" fill="white"/>
</g>
<path d="M10.5472 11.8634L10.7596 11.6516L10.7593 11.6513L10.5472 11.8634ZM6.90241 8.21866L6.69028 8.43079L6.69028 8.43079L6.90241 8.21866ZM6.90241 7.35849L6.69028 7.14636L6.69028 7.14636L6.90241 7.35849ZM7.76258 7.35849L7.97476 7.14641L7.97471 7.14636L7.76258 7.35849ZM10.3698 9.96694L10.1576 10.179L10.6698 10.6914V9.96694H10.3698ZM10.5477 0.677922L10.3356 0.46579L10.3356 0.46579L10.5477 0.677922ZM11.4068 0.677922L11.1947 0.890054L11.1947 0.890055L11.4068 0.677922ZM11.5847 9.96694H11.2847V10.6914L11.7969 10.179L11.5847 9.96694ZM14.192 7.35849L13.9798 7.14636L13.9798 7.14641L14.192 7.35849ZM15.0522 8.21866L15.2643 8.43079L15.2643 8.43079L15.0522 8.21866ZM11.4074 11.8634L11.1952 11.6513L11.195 11.6516L11.4074 11.8634ZM11.2101 11.9955L11.0951 11.7184L11.0951 11.7184L11.2101 11.9955ZM2.31826 9.6674L2.10612 9.87953L2.10612 9.87953L2.31826 9.6674ZM1.45917 9.6674L1.6713 9.87953L1.6713 9.87953L1.45917 9.6674ZM1.99294 14.8524L2.20507 14.6403L1.99294 14.8524ZM20.5422 9.6674L20.33 9.87953L20.5422 9.6674ZM19.6831 9.6674L19.8952 9.87953L19.6831 9.6674ZM19.1493 13.9933L19.3615 14.2055L19.3615 14.2055L19.1493 13.9933ZM2.85202 13.9933L2.63989 14.2055L2.85202 13.9933ZM10.3348 12.0753C10.4191 12.1598 10.5192 12.2269 10.6295 12.2726L10.8594 11.7184C10.8221 11.7029 10.7882 11.6802 10.7596 11.6516L10.3348 12.0753ZM6.69028 8.43079L10.3351 12.0756L10.7593 11.6513L7.11454 8.00653L6.69028 8.43079ZM6.42427 7.78857C6.42427 8.02945 6.51996 8.26046 6.69028 8.43079L7.11455 8.00653C7.05674 7.94872 7.02427 7.87032 7.02427 7.78857H6.42427ZM6.69028 7.14636C6.51995 7.31668 6.42427 7.5477 6.42427 7.78857H7.02427C7.02427 7.70683 7.05674 7.62843 7.11455 7.57062L6.69028 7.14636ZM7.3325 6.88034C7.09162 6.88034 6.86061 6.97603 6.69028 7.14636L7.11454 7.57062C7.17235 7.51282 7.25075 7.48034 7.3325 7.48034V6.88034ZM7.97471 7.14636C7.80439 6.97603 7.57337 6.88034 7.3325 6.88034V7.48034C7.41425 7.48034 7.49265 7.51282 7.55045 7.57062L7.97471 7.14636ZM10.582 9.75486L7.97476 7.14641L7.5504 7.57057L10.1576 10.179L10.582 9.75486ZM10.0698 1.10746V9.96694H10.6698V1.10746H10.0698ZM10.3356 0.46579C10.1654 0.635972 10.0698 0.866789 10.0698 1.10746H10.6698C10.6698 1.02592 10.7022 0.947715 10.7599 0.890054L10.3356 0.46579ZM10.9773 0.2C10.7366 0.2 10.5058 0.295608 10.3356 0.46579L10.7599 0.890055C10.8175 0.832393 10.8957 0.8 10.9773 0.8V0.2ZM11.619 0.46579C11.4488 0.295607 11.218 0.2 10.9773 0.2V0.8C11.0588 0.8 11.137 0.832394 11.1947 0.890054L11.619 0.46579ZM11.8847 1.10746C11.8847 0.86679 11.7891 0.635973 11.619 0.46579L11.1947 0.890055C11.2524 0.947715 11.2847 1.02592 11.2847 1.10746H11.8847ZM11.8847 9.96694V1.10746H11.2847V9.96694H11.8847ZM13.9798 7.14641L11.3726 9.75486L11.7969 10.179L14.4042 7.57057L13.9798 7.14641ZM14.6221 6.88034C14.3812 6.88034 14.1502 6.97603 13.9798 7.14636L14.4041 7.57062C14.4619 7.51282 14.5403 7.48034 14.6221 7.48034V6.88034ZM15.2643 7.14636C15.094 6.97603 14.8629 6.88034 14.6221 6.88034V7.48034C14.7038 7.48034 14.7822 7.51282 14.84 7.57062L15.2643 7.14636ZM15.5303 7.78857C15.5303 7.5477 15.4346 7.31668 15.2643 7.14636L14.84 7.57062C14.8978 7.62842 14.9303 7.70683 14.9303 7.78857H15.5303ZM15.2643 8.43079C15.4346 8.26046 15.5303 8.02945 15.5303 7.78857H14.9303C14.9303 7.87032 14.8978 7.94872 14.84 8.00653L15.2643 8.43079ZM11.6195 12.0756L15.2643 8.43079L14.84 8.00653L11.1952 11.6513L11.6195 12.0756ZM11.3251 12.2726C11.4353 12.2269 11.5355 12.1598 11.6198 12.0753L11.195 11.6516C11.1664 11.6802 11.1325 11.7029 11.0951 11.7184L11.3251 12.2726ZM10.9773 12.3419C11.0966 12.3419 11.2148 12.3184 11.3251 12.2726L11.0951 11.7184C11.0578 11.7339 11.0177 11.7419 10.9773 11.7419V12.3419ZM10.6295 12.2726C10.7397 12.3184 10.8579 12.3419 10.9773 12.3419V11.7419C10.9368 11.7419 10.8968 11.7339 10.8594 11.7184L10.6295 12.2726ZM1.88871 9.78947C1.97026 9.78947 2.04846 9.82187 2.10612 9.87953L2.53039 9.45527C2.36021 9.28508 2.12939 9.18947 1.88871 9.18947V9.78947ZM1.6713 9.87953C1.72897 9.82187 1.80717 9.78947 1.88871 9.78947V9.18947C1.64804 9.18947 1.41722 9.28508 1.24704 9.45527L1.6713 9.87953ZM1.58125 10.0969C1.58125 10.0154 1.61364 9.93719 1.6713 9.87953L1.24704 9.45527C1.07686 9.62545 0.98125 9.85626 0.98125 10.0969H1.58125ZM1.58125 13.1343V10.0969H0.98125V13.1343H1.58125ZM2.20507 14.6403C1.80565 14.2409 1.58125 13.6991 1.58125 13.1343H0.98125C0.98125 13.8583 1.26886 14.5526 1.78081 15.0646L2.20507 14.6403ZM3.71111 15.2641C3.14623 15.2641 2.6045 15.0397 2.20507 14.6403L1.78081 15.0646C2.29275 15.5765 2.9871 15.8641 3.71111 15.8641V15.2641ZM18.2902 15.2641H3.71111V15.8641H18.2902V15.2641ZM19.7963 14.6403C19.3969 15.0397 18.8551 15.2641 18.2902 15.2641V15.8641C19.0142 15.8641 19.7086 15.5765 20.2205 15.0646L19.7963 14.6403ZM20.4201 13.1343C20.4201 13.6991 20.1957 14.2409 19.7963 14.6403L20.2205 15.0646C20.7325 14.5526 21.0201 13.8583 21.0201 13.1343H20.4201ZM20.4201 10.0969V13.1343H21.0201V10.0969H20.4201ZM20.33 9.87953C20.3877 9.93719 20.4201 10.0154 20.4201 10.0969H21.0201C21.0201 9.85627 20.9245 9.62545 20.7543 9.45527L20.33 9.87953ZM20.1126 9.78947C20.1942 9.78947 20.2724 9.82187 20.33 9.87953L20.7543 9.45527C20.5841 9.28508 20.3533 9.18947 20.1126 9.18947V9.78947ZM19.8952 9.87953C19.9529 9.82187 20.0311 9.78947 20.1126 9.78947V9.18947C19.872 9.18947 19.6411 9.28508 19.471 9.45527L19.8952 9.87953ZM19.8052 10.0969C19.8052 10.0154 19.8376 9.93719 19.8952 9.87953L19.471 9.45527C19.3008 9.62545 19.2052 9.85627 19.2052 10.0969H19.8052ZM19.8052 13.1343V10.0969H19.2052V13.1343H19.8052ZM19.3615 14.2055C19.6456 13.9214 19.8052 13.536 19.8052 13.1343H19.2052C19.2052 13.3769 19.1088 13.6096 18.9372 13.7812L19.3615 14.2055ZM18.2902 14.6492C18.692 14.6492 19.0774 14.4896 19.3615 14.2055L18.9372 13.7812C18.7656 13.9528 18.5329 14.0492 18.2902 14.0492V14.6492ZM3.71111 14.6492H18.2902V14.0492H3.71111V14.6492ZM2.63989 14.2055C2.92399 14.4896 3.30932 14.6492 3.71111 14.6492V14.0492C3.46845 14.0492 3.23574 13.9528 3.06415 13.7812L2.63989 14.2055ZM2.19618 13.1343C2.19618 13.536 2.35579 13.9214 2.63989 14.2055L3.06415 13.7812C2.89257 13.6096 2.79618 13.3769 2.79618 13.1343H2.19618ZM2.19618 10.0969V13.1343H2.79618V10.0969H2.19618ZM2.10612 9.87953C2.16378 9.93719 2.19618 10.0154 2.19618 10.0969H2.79618C2.79618 9.85626 2.70057 9.62545 2.53039 9.45527L2.10612 9.87953Z" fill="white" mask="url(#path-1-outside-1_1078_222)"/>
<defs>
<filter id="filter0_i_1078_222" x="0.980469" y="0.200012" width="20.0391" height="19.6641" filterUnits="userSpaceOnUse" color-interpolation-filters="sRGB">
<feFlood flood-opacity="0" result="BackgroundImageFix"/>
<feBlend mode="normal" in="SourceGraphic" in2="BackgroundImageFix" result="shape"/>
<feColorMatrix in="SourceAlpha" type="matrix" values="0 0 0 0 0 0 0 0 0 0 0 0 0 0 0 0 0 0 127 0" result="hardAlpha"/>
<feOffset dy="4"/>
<feGaussianBlur stdDeviation="2"/>
<feComposite in2="hardAlpha" operator="arithmetic" k2="-1" k3="1"/>
<feColorMatrix type="matrix" values="0 0 0 0 1 0 0 0 0 1 0 0 0 0 1 0 0 0 0.25 0"/>
<feBlend mode="normal" in2="shape" result="effect1_innerShadow_1078_222"/>
</filter>
</defs>
</svg>
