<svg xmlns="http://www.w3.org/2000/svg" xmlns:xlink="http://www.w3.org/1999/xlink" version="1.1" id="Capa_1" x="0px" y="0px" viewBox="0 0 512 512" style="enable-background:new 0 0 512 512;" xml:space="preserve">
<style type="text/css">
	.st0{fill:#163F8E;}
</style>
<g>
	<g>
		<path class="st0" d="M53,311c-5.5,0-10,4.5-10,10s4.5,10,10,10s10-4.5,10-10S58.5,311,53,311z"/>
	</g>
</g>
<g>
	<g>
		<path class="st0" d="M495.3,344.1c-10.3-7.2-23.4-9-35.2-4.7c-0.1,0-0.2,0.1-0.3,0.1l-94.4,37.1c0.3-1.8,0.4-3.7,0.4-5.6    c0-22-17.9-40-40-40h-64.7c-1.7,0-3.4-0.4-4.9-1.3L203.4,300c-10.4-5.9-22.3-9-34.3-9H103v-10c0-5.5-4.5-10-10-10H10    c-5.5,0-10,4.5-10,10v179.9c0,5.5,4.5,10,10,10h82.9c5.5,0,10-4.5,10-10v-10h7.5l95.3,38.6c18.7,7.5,38.3,11.4,58.4,11.4    c22.4,0,44.1-4.7,64.5-14c0.1,0,0.1,0,0.2-0.1l158.9-75.6c14.5-6,23.9-19.9,23.9-35.6C511.7,363.1,505.5,351.3,495.3,344.1z     M82.9,450.9H20V291h63L82.9,450.9L82.9,450.9z M480,392.8c-0.2,0.1-0.4,0.2-0.6,0.3l-159.1,75.6c-17.7,8.1-36.6,12.2-56.1,12.2    c-17.5,0-34.7-3.3-50.9-9.9l-97.1-39.3c-1.2-0.5-2.5-0.7-3.8-0.7h-9.5V311H169c8.6,0,17,2.2,24.5,6.4l52.8,29.7    c4.5,2.5,9.6,3.9,14.7,3.9h64.7c11,0,20,9,20,20c0,6.9-3.6,13.4-9.5,17h-0.1c-0.8,0.3-1.4,0.7-2.1,1.1c-2.6,1.2-5.4,1.8-8.3,1.8    H224.2c-16.5,0-30,13.4-30,30c0,5.5,4.5,10,10,10s10-4.5,10-10s4.5-10,10-10h101.6c6.7,0,13.3-1.7,19.1-4.9L467,358.1    c5.7-2,11.9-1.2,16.8,2.3c5,3.5,7.9,9,7.9,15.2C491.7,383.2,487.1,390,480,392.8z"/>
	</g>
</g>
<g>
	<g>
		<path class="st0" d="M53,350.9c-5.5,0-10,4.5-10,10v60c0,5.5,4.5,10,10,10s10-4.5,10-10v-60C63,355.4,58.5,350.9,53,350.9z"/>
	</g>
</g>
<g>
	<g>
		<path class="st0" d="M501.2,113.3l-0.1-0.1L382.9,18.1c-11.1-9.2-27.2-9.2-38.3,0.1l-118.1,95.9l-0.1,0.1    c-6.1,5.2-9.9,12.4-10.6,20.4c-0.7,8,1.8,15.7,6.9,21.9c5.7,6.8,14.1,10.7,23,10.7c2.8,0,5.6-0.4,8.2-1.2v135c0,5.5,4.5,10,10,10    h70h60h70c5.5,0,10-4.5,10-10V165.1c11.1,3.2,23.5-0.2,31.4-9.6C515.6,142.8,513.9,123.9,501.2,113.3z M383.8,291h-40v-80h40V291z     M453.7,291h-50v-90c0-5.5-4.5-10-10-10h-60c-5.5,0-10,4.5-10,10v90h-50V152.9l90-72.8l89.9,72L453.7,291L453.7,291z M489.7,142.8    c-3.5,4.2-9.8,4.8-14.1,1.3l-0.1-0.1L370.1,59.4c-3.7-2.9-8.9-2.9-12.5,0l-105.4,85.2c-0.1,0-0.1,0.1-0.2,0.1    c-1.8,1.5-4,2.3-6.4,2.3c-3,0-5.8-1.3-7.7-3.6c-1.7-2.1-2.5-4.6-2.3-7.3c0.2-2.6,1.5-5,3.5-6.7l118.1-95.9l0.1-0.1    c3.7-3.1,9.1-3.1,12.8,0l0.1,0.1l118.2,95.1C492.7,132.3,493.2,138.5,489.7,142.8z"/>
	</g>
</g>
<g>
	<g>
		<path class="st0" d="M363.8,111.1c-16.5,0-30,13.4-30,30s13.4,30,30,30s30-13.4,30-30S380.3,111.1,363.8,111.1z M363.8,151.1    c-5.5,0-10-4.5-10-10s4.5-10,10-10s10,4.5,10,10S369.3,151.1,363.8,151.1z"/>
	</g>
</g>
</svg>