<svg xmlns="http://www.w3.org/2000/svg" xmlns:xlink="http://www.w3.org/1999/xlink" version="1.1" id="Capa_1" x="0px" y="0px" viewBox="0 0 480 480" style="enable-background:new 0 0 480 480;" xml:space="preserve" width="512px" height="512px" class=""><g><g>
	<g>
		<path d="M144,272c-4.422,0-8,3.582-8,8c0,4.41-3.586,8-8,8c-4.422,0-8,3.582-8,8v24h16v-17.371    c6.813-2.414,12.219-7.82,14.633-14.629H168v-16H144z" data-original="#000000" class="active-path" data-old_color="#000000" fill="#163F8E"/>
	</g>
</g><g>
	<g>
		<path d="M150.633,384c-2.414-6.809-7.82-12.215-14.633-14.629V352h-16v24c0,4.418,3.578,8,8,8c4.414,0,8,3.59,8,8    c0,4.418,3.578,8,8,8h24v-16H150.633z" data-original="#000000" class="active-path" data-old_color="#000000" fill="#163F8E"/>
	</g>
</g><g>
	<g>
		<path d="M352,288c-4.414,0-8-3.59-8-8c0-4.418-3.578-8-8-8h-24v16h17.367c2.414,6.809,7.82,12.215,14.633,14.629V320h16v-24    C360,291.582,356.422,288,352,288z" data-original="#000000" class="active-path" data-old_color="#000000" fill="#163F8E"/>
	</g>
</g><g>
	<g>
		<path d="M344,352v17.371c-6.813,2.414-12.219,7.82-14.633,14.629H312v16h24c4.422,0,8-3.582,8-8c0-4.41,3.586-8,8-8    c4.422,0,8-3.582,8-8v-24H344z" data-original="#000000" class="active-path" data-old_color="#000000" fill="#163F8E"/>
	</g>
</g><g>
	<g>
		<path d="M189.102,336c0-20.797,10.938-39.098,29.242-48.957l-7.578-14.086c-23.586,12.695-37.664,36.266-37.664,63.043    s14.078,50.348,37.664,63.043l7.578-14.086C200.039,375.098,189.102,356.797,189.102,336z" data-original="#000000" class="active-path" data-old_color="#000000" fill="#163F8E"/>
	</g>
</g><g>
	<g>
		<path d="M266.352,272.957l-7.594,14.086C277.07,296.902,288,315.203,288,336s-10.93,39.098-29.242,48.957l7.594,14.086    C289.922,386.348,304,362.777,304,336S289.922,285.652,266.352,272.957z" data-original="#000000" class="active-path" data-old_color="#000000" fill="#163F8E"/>
	</g>
</g><g>
	<g>
		<rect x="144" y="328" width="16" height="16" data-original="#000000" class="active-path" data-old_color="#000000" fill="#163F8E"/>
	</g>
</g><g>
	<g>
		<rect x="320" y="328" width="16" height="16" data-original="#000000" class="active-path" data-old_color="#000000" fill="#163F8E"/>
	</g>
</g><g>
	<g>
		<path d="M384,240H96c-4.422,0-8,3.582-8,8v176c0,4.418,3.578,8,8,8h288c4.422,0,8-3.582,8-8V248C392,243.582,388.422,240,384,240z     M376,416H104V256h272V416z" data-original="#000000" class="active-path" data-old_color="#000000" fill="#163F8E"/>
	</g>
</g><g>
	<g>
		<path d="M264,320v-16c0-4.418-3.578-8-8-8h-8v-8h-16v8h-8c-4.422,0-8,3.582-8,8v32c0,4.418,3.578,8,8,8h24v16h-16v-8h-16v16    c0,4.418,3.578,8,8,8h8v8h16v-8h8c4.422,0,8-3.582,8-8v-32c0-4.418-3.578-8-8-8h-24v-16h16v8H264z" data-original="#000000" class="active-path" data-old_color="#000000" fill="#163F8E"/>
	</g>
</g><g>
	<g>
		<rect x="88" y="440" width="304" height="16" data-original="#000000" class="active-path" data-old_color="#000000" fill="#163F8E"/>
	</g>
</g><g>
	<g>
		<rect x="88" y="464" width="304" height="16" data-original="#000000" class="active-path" data-old_color="#000000" fill="#163F8E"/>
	</g>
</g><g>
	<g>
		<path d="M477.656,146.344L374.451,43.138C368.615,18.449,346.443,0,320,0h-16c-30.875,0-56,25.121-56,56v40c0,4.41-3.586,8-8,8    h-8.639C227.458,76.907,204.152,56,176,56c-18.352,0-35.539,9.09-45.914,24H32c-2.125,0-4.156,0.844-5.656,2.344l-24,24    c-3.125,3.125-3.125,8.188,0,11.313l24,24c3.125,3.125,8.188,3.125,11.313,0L48,131.313l10.344,10.344    c3.125,3.125,8.188,3.125,11.313,0L80,131.313l10.344,10.344c3.125,3.125,8.188,3.125,11.313,0L112,131.313l10.344,10.344    c1.5,1.5,3.531,2.344,5.656,2.344h2.086c10.375,14.91,27.563,24,45.914,24c28.152,0,51.458-20.907,55.361-48H240    c13.234,0,24-10.766,24-24V56c0-22.055,17.945-40,40-40h16c18.612,0,34.162,12.838,38.605,30.083L258.344,146.344    c-3.125,3.125-3.125,8.188,0,11.313l16,16c3.125,3.125,8.188,3.125,11.313,0L296,163.313V216c0,4.418,3.578,8,8,8h128    c4.422,0,8-3.582,8-8v-52.688l10.344,10.344c3.125,3.125,8.188,3.125,11.313,0l16-16    C480.781,154.531,480.781,149.469,477.656,146.344z M176,88c-13.234,0-24,10.766-24,24s10.766,24,24,24    c10.416,0,19.213-6.708,22.526-16h16.666c-3.717,18.234-19.876,32-39.191,32c-14.242,0-27.492-7.66-34.586-19.992    c-1.43-2.48-4.078-4.008-6.938-4.008h-3.164l-13.656-13.656c-3.125-3.125-8.188-3.125-11.313,0L96,124.688l-10.344-10.344    c-3.125-3.125-8.188-3.125-11.313,0L64,124.688l-10.344-10.344c-3.125-3.125-8.188-3.125-11.313,0L32,124.688L19.313,112l16-16    h99.164c2.859,0,5.508-1.527,6.938-4.008C148.508,79.66,161.758,72,176,72c19.315,0,35.474,13.766,39.191,32h-16.666    C195.213,94.708,186.416,88,176,88z M184,112c0,4.41-3.586,8-8,8s-8-3.59-8-8s3.586-8,8-8S184,107.59,184,112z M456,156.688    l-18.344-18.344c-2.289-2.289-5.727-2.965-8.719-1.734C425.945,137.848,424,140.766,424,144v64H312v-64    c0-3.234-1.945-6.152-4.938-7.391c-2.984-1.238-6.43-0.559-8.719,1.734L280,156.688L275.313,152L368,59.313L460.688,152    L456,156.688z" data-original="#000000" class="active-path" data-old_color="#000000" fill="#163F8E"/>
	</g>
</g><g>
	<g>
		<path d="M400,112h-64c-4.422,0-8,3.582-8,8v64c0,4.418,3.578,8,8,8h64c4.422,0,8-3.582,8-8v-64C408,115.582,404.422,112,400,112z     M360,176h-16v-16h16V176z M360,144h-16v-16h16V144z M392,176h-16v-16h16V176z M392,144h-16v-16h16V144z" data-original="#000000" class="active-path" data-old_color="#000000" fill="#163F8E"/>
	</g>
</g></g> </svg>