<svg xmlns="http://www.w3.org/2000/svg" xmlns:xlink="http://www.w3.org/1999/xlink" version="1.1" id="Capa_1" x="0px" y="0px" viewBox="0 0 512 512" style="enable-background:new 0 0 512 512;" xml:space="preserve">
<style type="text/css">
	.st0{fill:#163F8E;}
</style>
<g>
	<g>
		<g>
			<path class="st0" d="M443.2,90c-44.3-44.3-103.3-68.8-166-68.8c-63.8,0-123.6,25.2-168.1,70.9c-4.8,5-4.7,13,0.2,17.9     c5,4.8,13,4.7,17.9-0.2c39.8-40.8,93-63.2,150-63.2c115.6-0.1,209.5,93.9,209.5,209.4s-94,209.5-209.5,209.5S67.7,371.6,67.7,256     v-2.6l20.9,20.9c2.4,2.4,5.7,3.7,9,3.7s6.4-1.3,9-3.7c5-5,5-13,0-17.9l-42.3-42.5c-5-5-13-5-17.9,0L3.7,256.3c-5,5-5,13,0,17.9     c5,5,13,5,17.9,0l20.9-20.9v2.6c0,62.7,24.4,121.7,68.8,166s103.3,68.8,166,68.8s121.7-24.4,166-68.8S512,318.7,512,256     S487.6,134.3,443.2,90z"/>
			<path class="st0" d="M344.4,170.6L189.1,325.7c-5,5-5,13,0,17.9c2.4,2.4,5.7,3.7,9,3.7s6.4-1.3,9-3.7l155.3-155.3     c5-5,5-13,0-17.9C357.4,165.6,349.3,165.6,344.4,170.6z"/>
			<path class="st0" d="M303.7,275.1c-17.6,17.6-17.6,46.4,0,63.9c8.5,8.5,19.9,13.3,32,13.3s23.5-4.7,32-13.3     c17.6-17.6,17.6-46.4,0-63.9c-8.5-8.5-19.9-13.3-32-13.3S312.4,266.5,303.7,275.1z M349.9,321.2c-3.8,3.8-8.7,5.8-14.1,5.8     s-10.3-2.1-14.1-5.8c-7.8-7.8-7.8-20.4,0-28.2c3.8-3.8,8.7-5.8,14.1-5.8s10.3,2.1,14.1,5.8C357.7,300.8,357.7,313.4,349.9,321.2z     "/>
			<path class="st0" d="M219,159.3c-12.1,0-23.5,4.7-32,13.3s-13.3,19.9-13.3,32s4.7,23.5,13.3,32s19.9,13.3,32,13.3     s23.5-4.7,32-13.3c8.5-8.5,13.3-19.9,13.3-32s-4.7-23.5-13.3-32C242.4,164,231.2,159.3,219,159.3z M233.2,218.7     c-3.8,3.8-8.7,5.8-14.1,5.8c-5.4,0-10.3-2.1-14.1-5.8c-3.8-3.8-5.8-8.7-5.8-14.1c0-5.4,2.1-10.3,5.8-14.1     c3.8-3.8,8.7-5.8,14.1-5.8c5.4,0,10.3,2.1,14.1,5.8c3.8,3.8,5.8,8.7,5.8,14.1C238.9,209.9,236.9,214.9,233.2,218.7z"/>
		</g>
	</g>
</g>
</svg>