<svg xmlns="http://www.w3.org/2000/svg" xmlns:xlink="http://www.w3.org/1999/xlink" version="1.1" id="Layer_1" x="0px" y="0px" viewBox="0 0 247.8 247.8" style="enable-background:new 0 0 247.8 247.8;" xml:space="preserve">
<style type="text/css">
	.st0{fill:#FFFFFF;}
</style>
<g id="Layer_2_1_">
	<g id="Layer_1-2">
		<g id="Layer_2-2">
			<g id="Layer_1-2-2">
				<g id="surface1">
					<path class="st0" d="M123.9,247.8c68.4,0,123.9-55.5,123.9-123.9S192.3,0,123.9,0S0,55.5,0,123.9l0,0l0,0       C0,192.3,55.4,247.7,123.9,247.8L123.9,247.8L123.9,247.8z M123.9,16.5c59.3,0,107.4,48.1,107.4,107.4s-48.1,107.4-107.4,107.4       S16.5,183.2,16.5,123.9l0,0C16.5,64.6,64.6,16.5,123.9,16.5z"/>
					<path class="st0" d="M73.5,128.4l-14.8,7.4l16.5,33c1.2,2.4,3.4,4,6.1,4.5c0.4,0.1,0.9,0.1,1.3,0.1c2.2,0,4.3-0.9,5.8-2.4       l99.1-99.1l-11.7-11.7l-91,91L73.5,128.4z"/>
				</g>
			</g>
		</g>
	</g>
</g>
</svg>