<svg width="20" height="16" viewBox="0 0 20 16" fill="none" xmlns="http://www.w3.org/2000/svg">
<path d="M0.888714 8.98947C1.04982 8.98947 1.20433 9.05347 1.31826 9.16739C1.43218 9.28132 1.49618 9.43583 1.49618 9.59694V12.6343C1.49618 12.9565 1.62418 13.2655 1.85202 13.4933C2.07987 13.7212 2.38889 13.8492 2.71111 13.8492H17.2902C17.6125 13.8492 17.9215 13.7212 18.1493 13.4933C18.3772 13.2655 18.5052 12.9565 18.5052 12.6343V9.59694C18.5052 9.43583 18.5692 9.28132 18.6831 9.16739C18.797 9.05347 18.9515 8.98947 19.1126 8.98947C19.2737 8.98947 19.4283 9.05347 19.5422 9.16739C19.6561 9.28132 19.7201 9.43583 19.7201 9.59694V12.6343C19.7201 13.2787 19.4641 13.8967 19.0084 14.3524C18.5527 14.8081 17.9347 15.0641 17.2902 15.0641H2.71111C2.06667 15.0641 1.44862 14.8081 0.992938 14.3524C0.537252 13.8967 0.28125 13.2787 0.28125 12.6343V9.59694C0.28125 9.43583 0.345251 9.28132 0.459172 9.16739C0.573094 9.05347 0.727605 8.98947 0.888714 8.98947V8.98947Z" fill="#163F8E"/>
<path d="M9.54754 11.3634C9.60397 11.42 9.671 11.4649 9.7448 11.4955C9.81861 11.5261 9.89772 11.5419 9.97763 11.5419C10.0575 11.5419 10.1366 11.5261 10.2104 11.4955C10.2842 11.4649 10.3513 11.42 10.4077 11.3634L14.0525 7.71866C14.1666 7.60459 14.2306 7.44989 14.2306 7.28857C14.2306 7.12726 14.1666 6.97255 14.0525 6.85849C13.9384 6.74442 13.7837 6.68034 13.6224 6.68034C13.4611 6.68034 13.3064 6.74442 13.1923 6.85849L10.5851 9.46694V0.607464C10.5851 0.446355 10.5211 0.291844 10.4072 0.177922C10.2932 0.0640005 10.1387 0 9.97763 0C9.81652 0 9.66201 0.0640005 9.54808 0.177922C9.43416 0.291844 9.37016 0.446355 9.37016 0.607464V9.46694L6.76293 6.85849C6.64886 6.74442 6.49415 6.68034 6.33284 6.68034C6.17153 6.68034 6.01682 6.74442 5.90276 6.85849C5.78869 6.97255 5.72461 7.12726 5.72461 7.28857C5.72461 7.44989 5.78869 7.60459 5.90276 7.71866L9.54754 11.3634Z" fill="#163F8E"/>
</svg>
