<svg xmlns="http://www.w3.org/2000/svg" xmlns:xlink="http://www.w3.org/1999/xlink" version="1.1" id="Layer_1" x="0px" y="0px" viewBox="0 0 512 512" style="enable-background:new 0 0 512 512;" xml:space="preserve">
<style type="text/css">
	.st0{fill:#163F8E;}
</style>
<g>
	<g>
		<g>
			<g>
				<path class="st0" d="M488.7,258.1v-72c0-24.4-18.9-44.2-42.8-46.2L379.1,23.3c-6.2-10.8-16.2-18.5-28.2-21.7      c-11.9-3.2-24.4-1.5-35,4.7L86.8,139.6H46.5C20.9,139.6,0,160.5,0,186.2v279.3C0,491.1,20.9,512,46.5,512h395.6      c25.7,0,46.5-20.9,46.5-46.5v-72c13.5-4.8,23.3-17.6,23.3-32.8v-69.8C512,275.8,502.2,263,488.7,258.1z M418.8,139.6H317.4      l76.1-44.3L418.8,139.6z M381.9,75.2l-110.8,64.5h-45.9l145.2-84.5L381.9,75.2z M327.6,26.4c5.3-3.1,11.4-3.9,17.3-2.3      c5.9,1.6,10.9,5.4,14,10.8l0,0L179,139.6H133L327.6,26.4z M465.5,465.5c0,12.8-10.4,23.3-23.3,23.3H46.5      c-12.8,0-23.3-10.4-23.3-23.3V186.2c0-12.8,10.4-23.3,23.3-23.3h395.6c12.8,0,23.3,10.4,23.3,23.3V256h-69.8      c-38.5,0-69.8,31.3-69.8,69.8s31.3,69.8,69.8,69.8h69.8L465.5,465.5L465.5,465.5z M488.7,360.7c0,6.4-5.2,11.6-11.6,11.6h-81.5      c-25.7,0-46.5-20.9-46.5-46.5c0-25.7,20.9-46.5,46.5-46.5h81.5c6.4,0,11.6,5.2,11.6,11.6V360.7z"/>
				<path class="st0" d="M395.6,302.5c-12.8,0-23.3,10.4-23.3,23.3s10.4,23.3,23.3,23.3s23.3-10.4,23.3-23.3      C418.9,313,408.5,302.5,395.6,302.5z"/>
			</g>
		</g>
	</g>
</g>
</svg>